HIERARCHY
ROOT Hips
{
  OFFSET -69.4423 88.0299 51.6846
  CHANNELS 6 Xposition Yposition Zposition Zrotation Xrotation Yrotation
  JOINT Spine
  {
    OFFSET 12.0259 -0.162853 1.93176e-005
    CHANNELS 3 Zrotation Xrotation Yrotation
    JOINT Spine1
    {
      OFFSET 15.3169 -0.0121909 0
      CHANNELS 3 Zrotation Xrotation Yrotation
      JOINT Spine2
      {
        OFFSET 15.3176 -0.0121922 0
        CHANNELS 3 Zrotation Xrotation Yrotation
        JOINT Neck
        {
          OFFSET 19.9142 1.56236 0
          CHANNELS 3 Zrotation Xrotation Yrotation
          JOINT Head
          {
            OFFSET 6.92646 0 0
            CHANNELS 3 Zrotation Xrotation Yrotation
            End Site
            {
              OFFSET 20.7666 0 0
            }
          }
          JOINT LeftShoulder
          {
            OFFSET -4.94072 -1.14703 8.14416
            CHANNELS 3 Zrotation Xrotation Yrotation
            JOINT LeftArm
            {
              OFFSET 14.108 0 -2.74767e-005
              CHANNELS 3 Zrotation Xrotation Yrotation
              JOINT LeftForeArm
              {
                OFFSET 28.5802 -0.0783412 -0.0284884
                CHANNELS 3 Zrotation Xrotation Yrotation
                JOINT LeftHand
                {
                  OFFSET 27.092 0 0
                  CHANNELS 3 Zrotation Xrotation Yrotation
                  End Site
                  {
                    OFFSET 9.55928 -0.186424 0.145352
                  }
                }
              }
            }
          }
          JOINT RightShoulder
          {
            OFFSET -7.15748 -1.33027 -6.24935
            CHANNELS 3 Zrotation Xrotation Yrotation
            JOINT RightArm
            {
              OFFSET 14.108 0 1.82997e-005
              CHANNELS 3 Zrotation Xrotation Yrotation
              JOINT RightForeArm
              {
                OFFSET 28.5802 -0.0707221 2.30684e-005
                CHANNELS 3 Zrotation Xrotation Yrotation
                JOINT RightHand
                {
                  OFFSET 27.092 0 -1.30073e-005
                  CHANNELS 3 Zrotation Xrotation Yrotation
                  End Site
                  {
                    OFFSET 9.55929 -0.186417 -0.145354
                  }
                }
              }
            }
          }
        }
      }
    }
  }
  JOINT LeftUpLeg
  {
    OFFSET 0.00499725 -0.534999 8.837
    CHANNELS 3 Zrotation Xrotation Yrotation
    JOINT LeftLeg
    {
      OFFSET 39.9035 -0.00124594 0.000252775
      CHANNELS 3 Zrotation Xrotation Yrotation
      JOINT LeftFoot
      {
        OFFSET 39.6689 0 0
        CHANNELS 3 Zrotation Xrotation Yrotation
        JOINT LeftToe
        {
          OFFSET 10.1624 13.6296 0
          CHANNELS 3 Zrotation Xrotation Yrotation
          End Site
          {
            OFFSET 8.38147 0 0
          }
        }
      }
    }
  }
  JOINT RightUpLeg
  {
    OFFSET 0.00499725 -0.535 -8.837
    CHANNELS 3 Zrotation Xrotation Yrotation
    JOINT RightLeg
    {
      OFFSET 39.9036 -0.000268477 0.000106433
      CHANNELS 3 Zrotation Xrotation Yrotation
      JOINT RightFoot
      {
        OFFSET 39.6689 1.17892e-005 0
        CHANNELS 3 Zrotation Xrotation Yrotation
        JOINT RightToe
        {
          OFFSET 10.1624 13.6296 0
          CHANNELS 3 Zrotation Xrotation Yrotation
          End Site
          {
            OFFSET 8.38147 0 0
          }
        }
      }
    }
  }
}
MOTION
Frames:	13
Frame Time:	0.0333333
71.2344 88.1584 -124.927 154.789 87.165 -66.4682 1.37768 1.98712 0.329671 2.74641 3.98207 0.612102 2.7464 3.98206 0.612093 -17.0018 -4.1966 -13.6704 38.7114 -3.7916 17.646 -166.099 -7.62203 -95.4084 -11.1035 9.81953 86.1071 -19.6759 1.85644 -12.8002 6.56474 -79.9749 8.91798 -165.668 -9.1943 72.6276 -25.4458 2.09524 -84.84 -25.5729 -3.22018 15.6002 8.88669 87.115 -8.77398 -24.053 -1.73575 -176.406 -15.2663 0.585818 -1.87909 -10.1946 4.32032 1.26108 90 -1.84373e-014 -3.18055e-015 14.9519 3.18614 -175.455 -12.755 -0.754406 0.362671 -12.3491 -0.766678 0.116381 90 -9.14409e-015 2.78299e-015 
72.0163 88.5827 -121.834 -178.382 87.6061 -92.7692 1.34092 1.83885 0.198642 2.67753 3.68232 0.354587 2.67752 3.68232 0.354574 -16.7965 -4.49169 -13.7972 38.602 -4.0972 18.2226 -166.353 -7.90209 -95.4532 -9.88994 9.61928 85.438 -19.6555 1.78667 -12.7816 2.68841 -76.4409 4.55193 -165.966 -9.46764 72.5619 -24.6966 1.11641 -85.4949 -25.0091 -3.08691 15.2894 8.34292 86.8508 -8.22233 -22.057 -0.528826 -177.505 -15.0757 0.686814 -1.84552 -9.97628 7.98716 2.41168 90 -6.4605e-015 4.77083e-015 13.1571 2.2145 -175.957 -19.863 -0.78484 0.219154 -5.16404 0.0361548 -0.129957 90 -2.18663e-015 3.37934e-015 
72.7241 88.629 -118.679 -148.787 87.7242 -122.137 1.42305 1.63333 0.215337 2.84174 3.27198 0.390396 2.84172 3.27197 0.390385 -16.6381 -4.67536 -13.8089 37.9248 -4.67683 18.0372 -166.552 -8.00894 -95.5044 -14.7329 9.82478 86.194 -20.7997 1.99251 -13.4036 7.05303 -81.5268 9.4095 -166.126 -9.5748 72.5478 -24.5387 0.413748 -85.163 -23.6615 -2.77804 14.5474 7.08137 86.3124 -6.9375 -20.1526 0.466227 -177.961 -15.2162 0.767064 -1.80519 -10.1161 11.0046 3.34263 90 -7.7526e-015 -3.18055e-015 11.1089 0.796684 -176.175 -27.0992 -0.688329 0.000483006 -10.6946 -0.164505 0.199792 90 -1.09332e-014 -1.41137e-014 
73.6435 88.9264 -115.495 -125.289 87.1854 -144.517 1.45858 1.38213 0.0156873 2.91807 2.76469 -0.00368978 2.91805 2.76467 -0.00370477 -16.6329 -4.71895 -13.8377 38.1035 -4.62222 18.2813 -166.554 -8.03486 -95.5587 -16.6122 9.80762 85.953 -21.9039 2.12753 -13.9719 5.24885 -80.4398 7.46049 -166.122 -9.59835 72.5461 -24.6341 -0.310923 -85.0246 -22.838 -2.59709 14.079 5.89338 85.3006 -5.70234 -17.5479 3.26577 -179.453 -14.6875 0.836073 -1.75825 -8.80722 14.2845 4.04427 90 -1.33186e-014 -1.43125e-014 6.97003 -1.77269 -177.87 -35.4225 -0.487564 -0.221319 -19.695 -1.5935 0.00895841 90 -2.16675e-014 -4.87022e-015 
74.4839 89.15 -112.573 -107.575 86.6256 -160.941 1.36544 1.3148 -0.233259 2.73738 2.62412 -0.49784 2.73737 2.62413 -0.497845 -15.8379 -4.94309 -13.9062 38.5293 -4.79768 18.4665 -167.421 -8.04502 -95.7992 -20.2634 10.9079 86.0331 -23.4183 2.35863 -14.7453 7.39388 -82.7211 9.78138 -167.009 -9.65956 72.4948 -22.1486 -1.63356 -85.8575 -23.0061 -2.62466 14.1506 3.26551 82.3901 -3.05489 -14.0947 3.02492 178.512 -12.886 0.890698 -1.76154 -10.5327 14.3066 4.29858 90 -1.78906e-015 -0 2.24239 -2.89672 -179.91 -44.2761 -0.152715 -0.387004 -28.2212 -1.18644 0.469562 90 8.15017e-015 6.5102e-015 
75.3314 89.3506 -109.735 -95.1271 86.2762 -171.923 1.52279 1.04229 -0.446921 3.05443 2.0728 -0.921483 3.05442 2.07279 -0.921488 -16.5761 -4.71908 -13.922 39.1821 -4.84688 17.807 -166.588 -7.85562 -95.7223 -20.6751 9.58953 85.5191 -23.554 2.38459 -14.856 11.2941 -84.0803 13.4732 -166.239 -9.58682 72.5129 -21.4346 -1.8038 -85.5583 -22.8459 -2.59705 14.0667 3.46796 82.4368 -3.22448 -9.87914 2.97315 176.218 -10.1811 0.91553 -1.74345 -8.87291 14.9437 4.05466 90 -3.18055e-015 -1.27222e-014 -2.95704 -3.10902 177.718 -53.3221 0.186247 -0.446191 -33.1967 0.165488 1.58774 90 -2.8625e-014 -2.3792e-014 
75.8488 89.5492 -106.927 -85.1631 85.5681 178.448 1.56034 0.753202 -0.443037 3.12688 1.49453 -0.906398 3.12687 1.49451 -0.906412 -16.3829 -4.43666 -13.853 39.1861 -4.49354 17.2465 -166.625 -7.36516 -95.6827 -19.9414 7.7014 84.5799 -22.9342 2.30902 -14.5892 7.41825 -82.0259 9.87986 -166.4 -9.29113 72.4565 -20.5316 -2.36427 -85.6483 -23.0931 -2.65939 14.2178 4.11903 83.5631 -3.88278 -6.01747 2.42729 175.42 -7.72171 0.935983 -1.71438 -8.07895 15.2193 3.81926 90 -1.43125e-014 4.77083e-015 -7.81088 -3.75178 176.846 -60.9521 0.237139 -0.379775 -29.2208 1.69318 2.38743 90 -2.94201e-014 -2.6985e-014 
76.394 89.7024 -104.124 -80.4402 84.4396 174.124 1.6422 0.411829 -0.462506 3.28781 0.810704 -0.936525 3.2878 0.810703 -0.936541 -16.4027 -4.2589 -13.958 39.2247 -4.09257 17.2856 -166.509 -7.12204 -95.8016 -19.7679 6.08048 83.8605 -23.1013 2.35489 -14.7212 6.7977 -80.8601 9.31691 -166.37 -9.17658 72.3247 -19.2272 -2.56946 -85.8536 -23.9315 -2.84562 14.6715 4.33828 83.9717 -4.16387 -2.58943 1.48018 174.708 -5.78179 0.960491 -1.67608 -7.51381 15.0683 3.46493 90 2.22639e-014 1.43125e-014 -12.4529 -4.5867 175.687 -66.0744 0.181271 -0.257946 -22.7379 3.12714 2.58875 90 -1.66979e-014 -2.5842e-015 
76.7246 89.7676 -101.278 -77.9153 83.8901 171.359 1.59646 0.184816 -0.384503 3.19417 0.359325 -0.773849 3.19416 0.359321 -0.773857 -16.2667 -4.18547 -13.6256 39.4915 -4.05126 16.8895 -166.553 -6.83405 -95.5728 -21.2671 5.22352 83.4907 -23.9434 2.49622 -15.204 6.96221 -81.2761 9.5122 -166.463 -8.99331 72.6226 -18.6446 -3.11911 -86.1375 -24.1774 -2.90311 14.8061 4.45058 84.2182 -4.29427 -0.740158 1.19426 174.834 -6.67991 1.00011 -1.59075 -4.66769 14.8042 2.77386 90 -3.57812e-015 -3.18055e-015 -16.8193 -4.69209 175.559 -68.2776 0.0946083 -0.147746 -16.8906 3.63982 2.12959 90 1.07344e-014 7.35503e-015 
77.074 89.5252 -98.8382 -77.7117 82.3157 171.474 1.62649 -0.296548 -0.297203 3.25148 -0.600855 -0.585709 3.25146 -0.600873 -0.585718 -16.7635 -3.87633 -14.3135 39.5407 -3.60246 16.9096 -166.068 -6.72543 -96.3215 -22.9569 4.2101 83.4185 -25.1376 2.69974 -15.898 5.90696 -81.2436 8.42028 -166.037 -9.04974 71.9614 -18.9035 -3.59841 -85.6366 -24.4098 -2.95247 14.9298 4.51301 84.6138 -4.3558 0.0590045 -0.0236656 174.546 -8.6434 1.03447 -1.50379 -1.87146 14.2679 2.10914 90 -5.1684e-015 6.36111e-015 -20.6323 -5.30595 174.87 -67.7301 0.00121915 -0.0399492 -12.1627 2.55681 1.16346 90 -3.97569e-016 -3.77691e-015 
77.5645 89.1709 -96.0418 -75.7143 82.6063 170.167 1.65579 -0.295178 -0.424601 3.30942 -0.602017 -0.840379 3.30941 -0.602024 -0.840392 -16.4412 -3.82071 -14.1065 38.5192 -3.23986 17.1813 -166.302 -6.48947 -96.2388 -25.8747 3.48083 82.5741 -26.285 2.89833 -16.5229 7.6207 -83.083 10.192 -166.309 -8.92373 72.1414 -18.6434 -3.92084 -85.7114 -24.6694 -3.00553 15.0491 4.76247 85.0009 -4.60072 1.36009 0.246134 173.657 -10.4599 1.07438 -1.37594 0.140515 13.3394 1.56452 90 3.97569e-016 6.36111e-015 -23.9793 -4.20101 174.141 -65.082 -0.0908456 0.0817184 -6.34681 1.0947 0.169967 90 9.26834e-015 7.64079e-015 
77.8209 88.829 -93.5016 -76.1798 82.897 170.856 1.60873 -0.359267 -0.445253 3.21475 -0.730415 -0.880172 3.21474 -0.730413 -0.880186 -16.5695 -3.8748 -14.122 38.193 -3.37025 17.2657 -166.153 -6.47954 -96.2858 -27.7498 2.56045 81.7736 -27.106 3.02641 -16.9989 7.70576 -83.674 9.9855 -166.223 -9.06576 72.1738 -18.5216 -4.32725 -85.7854 -24.7628 -3.02971 15.1053 4.63997 84.859 -4.47765 1.95234 0.503733 173.324 -12.7057 1.11199 -1.27326 0.99597 12.1029 1.3205 90 -1.09332e-014 -9.54166e-015 -26.7365 -3.67155 174.136 -59.9786 -0.117734 0.188067 -4.0012 1.42444 0.0496746 90 -1.46604e-015 -3.97569e-016 
78.056 88.6703 -91.1333 -81.3439 82.3226 176.058 1.51843 -0.611536 -0.399269 3.03284 -1.23294 -0.782117 3.03282 -1.23295 -0.782125 -17.0446 -3.75389 -14.1341 38.0377 -3.33503 17.0831 -165.647 -6.36979 -96.3499 -29.6927 1.70397 81.2313 -28.3118 3.27112 -17.6727 10.7487 -84.828 13.0286 -165.751 -9.09434 72.2089 -18.1125 -4.29036 -85.6391 -24.519 -2.97543 14.9769 4.29293 84.3943 -4.13563 3.45634 -0.456879 173.234 -11.6707 1.11472 -1.27934 2.19105 11.8403 1.11816 90 -1.92821e-014 5.56597e-015 -28.9627 -3.68142 174.148 -52.349 -0.127382 0.33979 -3.55106 3.09784 0.392931 90 -1.6201e-014 2.98177e-015 
